<svg id="visual" viewBox="0 0 900 600" width="900" height="600" xmlns="http://www.w3.org/2000/svg" xmlns:xlink="http://www.w3.org/1999/xlink" version="1.1"><g stroke-width="1" stroke-linejoin="bevel"><path d="M468 298L433 351L470 340Z" fill="#ca0000" stroke="#ca0000"></path><path d="M468 298L403 290L433 351Z" fill="#930011" stroke="#930011"></path><path d="M403 290L374 357L433 351Z" fill="#6f0513" stroke="#6f0513"></path><path d="M468 298L462 243L403 290Z" fill="#1c0000" stroke="#1c0000"></path><path d="M470 340L527 305L468 298Z" fill="#b80009" stroke="#b80009"></path><path d="M468 298L527 305L462 243Z" fill="#a6000e" stroke="#a6000e"></path><path d="M462 243L415 232L403 290Z" fill="#ca0000" stroke="#ca0000"></path><path d="M403 290L350 288L374 357Z" fill="#4b0910" stroke="#4b0910"></path><path d="M489 428L527 365L470 340Z" fill="#3a0a0d" stroke="#3a0a0d"></path><path d="M470 340L527 365L527 305Z" fill="#930011" stroke="#930011"></path><path d="M489 428L470 340L433 351Z" fill="#ca0000" stroke="#ca0000"></path><path d="M374 357L405 409L433 351Z" fill="#ca0000" stroke="#ca0000"></path><path d="M361 245L350 288L403 290Z" fill="#b80009" stroke="#b80009"></path><path d="M415 232L361 245L403 290Z" fill="#2a0807" stroke="#2a0807"></path><path d="M405 409L489 428L433 351Z" fill="#810213" stroke="#810213"></path><path d="M312 363L355 411L374 357Z" fill="#4b0910" stroke="#4b0910"></path><path d="M374 357L355 411L405 409Z" fill="#2a0807" stroke="#2a0807"></path><path d="M429 473L472 468L489 428Z" fill="#4b0910" stroke="#4b0910"></path><path d="M591 301L537 230L527 305Z" fill="#b80009" stroke="#b80009"></path><path d="M527 305L537 230L462 243Z" fill="#1c0000" stroke="#1c0000"></path><path d="M462 243L433 184L415 232Z" fill="#5d0812" stroke="#5d0812"></path><path d="M280 225L312 310L350 288Z" fill="#2a0807" stroke="#2a0807"></path><path d="M350 288L312 310L374 357Z" fill="#a6000e" stroke="#a6000e"></path><path d="M481 179L433 184L462 243Z" fill="#2a0807" stroke="#2a0807"></path><path d="M415 232L372 197L361 245Z" fill="#b80009" stroke="#b80009"></path><path d="M312 310L312 363L374 357Z" fill="#a6000e" stroke="#a6000e"></path><path d="M433 184L372 197L415 232Z" fill="#6f0513" stroke="#6f0513"></path><path d="M361 245L280 225L350 288Z" fill="#6f0513" stroke="#6f0513"></path><path d="M590 402L582 363L527 365Z" fill="#930011" stroke="#930011"></path><path d="M527 365L582 363L527 305Z" fill="#a6000e" stroke="#a6000e"></path><path d="M537 230L481 179L462 243Z" fill="#6f0513" stroke="#6f0513"></path><path d="M582 363L591 301L527 305Z" fill="#1c0000" stroke="#1c0000"></path><path d="M429 473L489 428L405 409Z" fill="#b80009" stroke="#b80009"></path><path d="M489 428L545 435L527 365Z" fill="#3a0a0d" stroke="#3a0a0d"></path><path d="M531 464L545 435L489 428Z" fill="#a6000e" stroke="#a6000e"></path><path d="M365 487L429 473L405 409Z" fill="#930011" stroke="#930011"></path><path d="M537 230L542 186L481 179Z" fill="#4b0910" stroke="#4b0910"></path><path d="M612 236L542 186L537 230Z" fill="#810213" stroke="#810213"></path><path d="M545 435L590 402L527 365Z" fill="#5d0812" stroke="#5d0812"></path><path d="M669 313L642 236L591 301Z" fill="#3a0a0d" stroke="#3a0a0d"></path><path d="M491 533L531 464L472 468Z" fill="#2a0807" stroke="#2a0807"></path><path d="M472 468L531 464L489 428Z" fill="#1c0000" stroke="#1c0000"></path><path d="M545 435L605 474L590 402Z" fill="#1c0000" stroke="#1c0000"></path><path d="M284 480L365 487L355 411Z" fill="#3a0a0d" stroke="#3a0a0d"></path><path d="M355 411L365 487L405 409Z" fill="#a6000e" stroke="#a6000e"></path><path d="M429 473L491 533L472 468Z" fill="#930011" stroke="#930011"></path><path d="M642 236L612 236L591 301Z" fill="#6f0513" stroke="#6f0513"></path><path d="M591 301L612 236L537 230Z" fill="#810213" stroke="#810213"></path><path d="M372 197L280 225L361 245Z" fill="#1c0000" stroke="#1c0000"></path><path d="M234 367L280 421L312 363Z" fill="#b80009" stroke="#b80009"></path><path d="M234 367L312 363L312 310Z" fill="#1c0000" stroke="#1c0000"></path><path d="M312 363L280 421L355 411Z" fill="#ca0000" stroke="#ca0000"></path><path d="M280 225L245 293L312 310Z" fill="#930011" stroke="#930011"></path><path d="M481 179L424 117L433 184Z" fill="#ca0000" stroke="#ca0000"></path><path d="M433 184L424 117L372 197Z" fill="#810213" stroke="#810213"></path><path d="M372 197L298 170L280 225Z" fill="#a6000e" stroke="#a6000e"></path><path d="M483 108L424 117L481 179Z" fill="#ca0000" stroke="#ca0000"></path><path d="M612 236L584 166L542 186Z" fill="#b80009" stroke="#b80009"></path><path d="M558 121L483 108L481 179Z" fill="#5d0812" stroke="#5d0812"></path><path d="M360 104L298 170L372 197Z" fill="#810213" stroke="#810213"></path><path d="M280 225L223 252L245 293Z" fill="#a6000e" stroke="#a6000e"></path><path d="M245 293L234 367L312 310Z" fill="#2a0807" stroke="#2a0807"></path><path d="M663 354L591 301L582 363Z" fill="#a6000e" stroke="#a6000e"></path><path d="M612 236L663 177L584 166Z" fill="#b80009" stroke="#b80009"></path><path d="M558 121L481 179L542 186Z" fill="#5d0812" stroke="#5d0812"></path><path d="M436 558L491 533L429 473Z" fill="#ca0000" stroke="#ca0000"></path><path d="M531 464L605 474L545 435Z" fill="#930011" stroke="#930011"></path><path d="M652 430L663 354L590 402Z" fill="#5d0812" stroke="#5d0812"></path><path d="M590 402L663 354L582 363Z" fill="#a6000e" stroke="#a6000e"></path><path d="M586 520L605 474L531 464Z" fill="#810213" stroke="#810213"></path><path d="M663 354L669 313L591 301Z" fill="#4b0910" stroke="#4b0910"></path><path d="M256 489L284 480L280 421Z" fill="#6f0513" stroke="#6f0513"></path><path d="M280 421L284 480L355 411Z" fill="#2a0807" stroke="#2a0807"></path><path d="M365 487L369 540L429 473Z" fill="#2a0807" stroke="#2a0807"></path><path d="M584 166L558 121L542 186Z" fill="#5d0812" stroke="#5d0812"></path><path d="M618 114L558 121L584 166Z" fill="#810213" stroke="#810213"></path><path d="M253 168L223 252L280 225Z" fill="#930011" stroke="#930011"></path><path d="M245 293L196 365L234 367Z" fill="#3a0a0d" stroke="#3a0a0d"></path><path d="M411 51L360 104L424 117Z" fill="#1c0000" stroke="#1c0000"></path><path d="M424 117L360 104L372 197Z" fill="#2a0807" stroke="#2a0807"></path><path d="M293 524L369 540L365 487Z" fill="#1c0000" stroke="#1c0000"></path><path d="M234 367L227 407L280 421Z" fill="#5d0812" stroke="#5d0812"></path><path d="M196 365L227 407L234 367Z" fill="#b80009" stroke="#b80009"></path><path d="M605 474L652 430L590 402Z" fill="#b80009" stroke="#b80009"></path><path d="M721 297L702 226L669 313Z" fill="#4b0910" stroke="#4b0910"></path><path d="M369 540L436 558L429 473Z" fill="#2a0807" stroke="#2a0807"></path><path d="M291 114L253 168L298 170Z" fill="#3a0a0d" stroke="#3a0a0d"></path><path d="M298 170L253 168L280 225Z" fill="#5d0812" stroke="#5d0812"></path><path d="M553 549L531 464L491 533Z" fill="#930011" stroke="#930011"></path><path d="M553 549L586 520L531 464Z" fill="#930011" stroke="#930011"></path><path d="M605 474L666 468L652 430Z" fill="#4b0910" stroke="#4b0910"></path><path d="M169 283L196 365L245 293Z" fill="#810213" stroke="#810213"></path><path d="M199 496L256 489L227 407Z" fill="#5d0812" stroke="#5d0812"></path><path d="M227 407L256 489L280 421Z" fill="#1c0000" stroke="#1c0000"></path><path d="M284 480L293 524L365 487Z" fill="#b80009" stroke="#b80009"></path><path d="M528 600L553 549L491 533Z" fill="#930011" stroke="#930011"></path><path d="M256 489L293 524L284 480Z" fill="#2a0807" stroke="#2a0807"></path><path d="M369 540L402 600L436 558Z" fill="#810213" stroke="#810213"></path><path d="M360 104L291 114L298 170Z" fill="#5d0812" stroke="#5d0812"></path><path d="M702 226L663 177L642 236Z" fill="#5d0812" stroke="#5d0812"></path><path d="M642 236L663 177L612 236Z" fill="#810213" stroke="#810213"></path><path d="M672 520L605 474L586 520Z" fill="#1c0000" stroke="#1c0000"></path><path d="M672 520L666 468L605 474Z" fill="#a6000e" stroke="#a6000e"></path><path d="M737 427L720 348L663 354Z" fill="#a6000e" stroke="#a6000e"></path><path d="M648 128L618 114L584 166Z" fill="#810213" stroke="#810213"></path><path d="M486 46L411 51L483 108Z" fill="#810213" stroke="#810213"></path><path d="M548 67L483 108L558 121Z" fill="#a6000e" stroke="#a6000e"></path><path d="M483 108L411 51L424 117Z" fill="#6f0513" stroke="#6f0513"></path><path d="M360 104L303 41L291 114Z" fill="#3a0a0d" stroke="#3a0a0d"></path><path d="M603 55L548 67L558 121Z" fill="#1c0000" stroke="#1c0000"></path><path d="M720 348L669 313L663 354Z" fill="#2a0807" stroke="#2a0807"></path><path d="M669 313L702 226L642 236Z" fill="#ca0000" stroke="#ca0000"></path><path d="M663 177L648 128L584 166Z" fill="#ca0000" stroke="#ca0000"></path><path d="M548 67L486 46L483 108Z" fill="#b80009" stroke="#b80009"></path><path d="M737 427L663 354L652 430Z" fill="#a6000e" stroke="#a6000e"></path><path d="M171 239L169 283L223 252Z" fill="#930011" stroke="#930011"></path><path d="M223 252L169 283L245 293Z" fill="#3a0a0d" stroke="#3a0a0d"></path><path d="M171 239L223 252L180 192Z" fill="#2a0807" stroke="#2a0807"></path><path d="M720 348L721 297L669 313Z" fill="#1c0000" stroke="#1c0000"></path><path d="M729 113L648 128L663 177Z" fill="#930011" stroke="#930011"></path><path d="M618 114L603 55L558 121Z" fill="#2a0807" stroke="#2a0807"></path><path d="M347 600L402 600L369 540Z" fill="#a6000e" stroke="#a6000e"></path><path d="M436 558L497 600L491 533Z" fill="#930011" stroke="#930011"></path><path d="M402 600L497 600L436 558Z" fill="#5d0812" stroke="#5d0812"></path><path d="M648 600L672 520L586 520Z" fill="#a6000e" stroke="#a6000e"></path><path d="M180 192L223 252L253 168Z" fill="#a6000e" stroke="#a6000e"></path><path d="M411 51L355 42L360 104Z" fill="#1c0000" stroke="#1c0000"></path><path d="M228 102L180 192L253 168Z" fill="#3a0a0d" stroke="#3a0a0d"></path><path d="M346 0L355 42L411 51Z" fill="#2a0807" stroke="#2a0807"></path><path d="M497 600L528 600L491 533Z" fill="#5d0812" stroke="#5d0812"></path><path d="M228 102L253 168L291 114Z" fill="#ca0000" stroke="#ca0000"></path><path d="M125 379L167 424L196 365Z" fill="#ca0000" stroke="#ca0000"></path><path d="M196 365L167 424L227 407Z" fill="#5d0812" stroke="#5d0812"></path><path d="M280 600L347 600L293 524Z" fill="#6f0513" stroke="#6f0513"></path><path d="M244 547L293 524L256 489Z" fill="#6f0513" stroke="#6f0513"></path><path d="M293 524L347 600L369 540Z" fill="#810213" stroke="#810213"></path><path d="M167 424L199 496L227 407Z" fill="#3a0a0d" stroke="#3a0a0d"></path><path d="M199 496L244 547L256 489Z" fill="#a6000e" stroke="#a6000e"></path><path d="M588 600L586 520L553 549Z" fill="#a6000e" stroke="#a6000e"></path><path d="M666 468L737 427L652 430Z" fill="#930011" stroke="#930011"></path><path d="M235 48L228 102L291 114Z" fill="#2a0807" stroke="#2a0807"></path><path d="M664 63L603 55L618 114Z" fill="#b80009" stroke="#b80009"></path><path d="M528 0L462 0L486 46Z" fill="#a6000e" stroke="#a6000e"></path><path d="M707 497L737 427L666 468Z" fill="#5d0812" stroke="#5d0812"></path><path d="M720 348L796 292L721 297Z" fill="#b80009" stroke="#b80009"></path><path d="M355 42L303 41L360 104Z" fill="#930011" stroke="#930011"></path><path d="M528 600L588 600L553 549Z" fill="#1c0000" stroke="#1c0000"></path><path d="M702 226L727 181L663 177Z" fill="#3a0a0d" stroke="#3a0a0d"></path><path d="M648 128L664 63L618 114Z" fill="#4b0910" stroke="#4b0910"></path><path d="M784 195L727 181L702 226Z" fill="#6f0513" stroke="#6f0513"></path><path d="M797 241L702 226L721 297Z" fill="#5d0812" stroke="#5d0812"></path><path d="M724 540L707 497L672 520Z" fill="#4b0910" stroke="#4b0910"></path><path d="M672 520L707 497L666 468Z" fill="#3a0a0d" stroke="#3a0a0d"></path><path d="M462 0L437 0L486 46Z" fill="#ca0000" stroke="#ca0000"></path><path d="M486 46L437 0L411 51Z" fill="#a6000e" stroke="#a6000e"></path><path d="M355 42L317 0L303 41Z" fill="#4b0910" stroke="#4b0910"></path><path d="M528 0L486 46L548 67Z" fill="#ca0000" stroke="#ca0000"></path><path d="M131 236L123 302L169 283Z" fill="#b80009" stroke="#b80009"></path><path d="M169 283L123 302L196 365Z" fill="#2a0807" stroke="#2a0807"></path><path d="M131 236L169 283L171 239Z" fill="#4b0910" stroke="#4b0910"></path><path d="M180 192L131 236L171 239Z" fill="#6f0513" stroke="#6f0513"></path><path d="M133 173L131 236L180 192Z" fill="#810213" stroke="#810213"></path><path d="M244 547L280 600L293 524Z" fill="#ca0000" stroke="#ca0000"></path><path d="M252 600L280 600L244 547Z" fill="#b80009" stroke="#b80009"></path><path d="M123 302L125 379L196 365Z" fill="#6f0513" stroke="#6f0513"></path><path d="M167 424L132 467L199 496Z" fill="#810213" stroke="#810213"></path><path d="M586 0L528 0L548 67Z" fill="#4b0910" stroke="#4b0910"></path><path d="M772 471L761 421L737 427Z" fill="#930011" stroke="#930011"></path><path d="M737 427L761 421L720 348Z" fill="#930011" stroke="#930011"></path><path d="M437 0L346 0L411 51Z" fill="#a6000e" stroke="#a6000e"></path><path d="M303 41L235 48L291 114Z" fill="#b80009" stroke="#b80009"></path><path d="M729 113L664 63L648 128Z" fill="#4b0910" stroke="#4b0910"></path><path d="M603 55L586 0L548 67Z" fill="#810213" stroke="#810213"></path><path d="M168 600L252 600L244 547Z" fill="#ca0000" stroke="#ca0000"></path><path d="M163 530L244 547L199 496Z" fill="#5d0812" stroke="#5d0812"></path><path d="M247 0L235 48L303 41Z" fill="#ca0000" stroke="#ca0000"></path><path d="M170 106L133 173L180 192Z" fill="#3a0a0d" stroke="#3a0a0d"></path><path d="M170 106L180 192L228 102Z" fill="#a6000e" stroke="#a6000e"></path><path d="M131 236L75 242L123 302Z" fill="#3a0a0d" stroke="#3a0a0d"></path><path d="M346 0L317 0L355 42Z" fill="#3a0a0d" stroke="#3a0a0d"></path><path d="M107 423L132 467L167 424Z" fill="#ca0000" stroke="#ca0000"></path><path d="M588 600L648 600L586 520Z" fill="#930011" stroke="#930011"></path><path d="M707 497L772 471L737 427Z" fill="#1c0000" stroke="#1c0000"></path><path d="M185 52L170 106L228 102Z" fill="#b80009" stroke="#b80009"></path><path d="M641 0L586 0L603 55Z" fill="#810213" stroke="#810213"></path><path d="M132 467L163 530L199 496Z" fill="#2a0807" stroke="#2a0807"></path><path d="M65 371L107 423L125 379Z" fill="#b80009" stroke="#b80009"></path><path d="M125 379L107 423L167 424Z" fill="#5d0812" stroke="#5d0812"></path><path d="M132 467L133 535L163 530Z" fill="#810213" stroke="#810213"></path><path d="M65 371L125 379L123 302Z" fill="#810213" stroke="#810213"></path><path d="M727 181L729 113L663 177Z" fill="#6f0513" stroke="#6f0513"></path><path d="M664 63L641 0L603 55Z" fill="#b80009" stroke="#b80009"></path><path d="M790 109L729 113L727 181Z" fill="#930011" stroke="#930011"></path><path d="M799 371L796 292L720 348Z" fill="#5d0812" stroke="#5d0812"></path><path d="M702 600L724 540L672 520Z" fill="#5d0812" stroke="#5d0812"></path><path d="M857 408L799 371L761 421Z" fill="#810213" stroke="#810213"></path><path d="M761 421L799 371L720 348Z" fill="#930011" stroke="#930011"></path><path d="M724 540L772 471L707 497Z" fill="#1c0000" stroke="#1c0000"></path><path d="M821 292L797 241L796 292Z" fill="#a6000e" stroke="#a6000e"></path><path d="M796 292L797 241L721 297Z" fill="#1c0000" stroke="#1c0000"></path><path d="M797 241L784 195L702 226Z" fill="#a6000e" stroke="#a6000e"></path><path d="M170 106L133 112L133 173Z" fill="#ca0000" stroke="#ca0000"></path><path d="M235 48L185 52L228 102Z" fill="#2a0807" stroke="#2a0807"></path><path d="M198 0L185 52L235 48Z" fill="#ca0000" stroke="#ca0000"></path><path d="M135 60L133 112L170 106Z" fill="#3a0a0d" stroke="#3a0a0d"></path><path d="M133 173L75 242L131 236Z" fill="#3a0a0d" stroke="#3a0a0d"></path><path d="M317 0L247 0L303 41Z" fill="#1c0000" stroke="#1c0000"></path><path d="M718 56L641 0L664 63Z" fill="#3a0a0d" stroke="#3a0a0d"></path><path d="M41 173L75 242L133 173Z" fill="#ca0000" stroke="#ca0000"></path><path d="M62 539L133 535L132 467Z" fill="#810213" stroke="#810213"></path><path d="M163 530L168 600L244 547Z" fill="#1c0000" stroke="#1c0000"></path><path d="M825 362L821 292L796 292Z" fill="#b80009" stroke="#b80009"></path><path d="M831 164L790 109L784 195Z" fill="#2a0807" stroke="#2a0807"></path><path d="M825 362L796 292L799 371Z" fill="#ca0000" stroke="#ca0000"></path><path d="M75 242L64 304L123 302Z" fill="#2a0807" stroke="#2a0807"></path><path d="M107 423L42 492L132 467Z" fill="#2a0807" stroke="#2a0807"></path><path d="M724 540L779 541L772 471Z" fill="#6f0513" stroke="#6f0513"></path><path d="M648 600L702 600L672 520Z" fill="#810213" stroke="#810213"></path><path d="M778 57L718 56L729 113Z" fill="#1c0000" stroke="#1c0000"></path><path d="M729 113L718 56L664 63Z" fill="#4b0910" stroke="#4b0910"></path><path d="M64 304L65 371L123 302Z" fill="#ca0000" stroke="#ca0000"></path><path d="M857 408L825 362L799 371Z" fill="#5d0812" stroke="#5d0812"></path><path d="M133 535L168 600L163 530Z" fill="#930011" stroke="#930011"></path><path d="M760 600L779 541L724 540Z" fill="#a6000e" stroke="#a6000e"></path><path d="M772 471L827 478L761 421Z" fill="#5d0812" stroke="#5d0812"></path><path d="M185 52L135 60L170 106Z" fill="#a6000e" stroke="#a6000e"></path><path d="M247 0L198 0L235 48Z" fill="#810213" stroke="#810213"></path><path d="M112 0L135 60L185 52Z" fill="#1c0000" stroke="#1c0000"></path><path d="M133 112L57 139L133 173Z" fill="#930011" stroke="#930011"></path><path d="M0 374L48 401L65 371Z" fill="#4b0910" stroke="#4b0910"></path><path d="M65 371L48 401L107 423Z" fill="#4b0910" stroke="#4b0910"></path><path d="M133 535L103 600L168 600Z" fill="#2a0807" stroke="#2a0807"></path><path d="M784 195L790 109L727 181Z" fill="#1c0000" stroke="#1c0000"></path><path d="M831 164L784 195L797 241Z" fill="#3a0a0d" stroke="#3a0a0d"></path><path d="M900 315L848 252L821 292Z" fill="#4b0910" stroke="#4b0910"></path><path d="M821 292L848 252L797 241Z" fill="#4b0910" stroke="#4b0910"></path><path d="M779 541L827 478L772 471Z" fill="#ca0000" stroke="#ca0000"></path><path d="M825 362L900 315L821 292Z" fill="#6f0513" stroke="#6f0513"></path><path d="M848 252L831 164L797 241Z" fill="#b80009" stroke="#b80009"></path><path d="M702 600L760 600L724 540Z" fill="#3a0a0d" stroke="#3a0a0d"></path><path d="M779 541L851 549L827 478Z" fill="#5d0812" stroke="#5d0812"></path><path d="M827 478L857 408L761 421Z" fill="#4b0910" stroke="#4b0910"></path><path d="M828 79L778 57L790 109Z" fill="#810213" stroke="#810213"></path><path d="M790 109L778 57L729 113Z" fill="#810213" stroke="#810213"></path><path d="M718 56L737 0L641 0Z" fill="#1c0000" stroke="#1c0000"></path><path d="M72 56L57 139L133 112Z" fill="#5d0812" stroke="#5d0812"></path><path d="M0 240L0 296L64 304Z" fill="#2a0807" stroke="#2a0807"></path><path d="M64 304L0 374L65 371Z" fill="#a6000e" stroke="#a6000e"></path><path d="M57 139L41 173L133 173Z" fill="#4b0910" stroke="#4b0910"></path><path d="M778 57L737 0L718 56Z" fill="#2a0807" stroke="#2a0807"></path><path d="M0 421L42 492L48 401Z" fill="#2a0807" stroke="#2a0807"></path><path d="M48 401L42 492L107 423Z" fill="#3a0a0d" stroke="#3a0a0d"></path><path d="M42 492L62 539L132 467Z" fill="#930011" stroke="#930011"></path><path d="M62 539L103 600L133 535Z" fill="#1c0000" stroke="#1c0000"></path><path d="M0 240L64 304L75 242Z" fill="#5d0812" stroke="#5d0812"></path><path d="M0 296L0 374L64 304Z" fill="#1c0000" stroke="#1c0000"></path><path d="M41 173L0 240L75 242Z" fill="#ca0000" stroke="#ca0000"></path><path d="M0 165L0 240L41 173Z" fill="#810213" stroke="#810213"></path><path d="M844 106L828 79L790 109Z" fill="#2a0807" stroke="#2a0807"></path><path d="M778 57L779 0L737 0Z" fill="#810213" stroke="#810213"></path><path d="M844 106L790 109L831 164Z" fill="#810213" stroke="#810213"></path><path d="M900 126L844 106L831 164Z" fill="#ca0000" stroke="#ca0000"></path><path d="M900 232L831 164L848 252Z" fill="#5d0812" stroke="#5d0812"></path><path d="M0 374L0 421L48 401Z" fill="#5d0812" stroke="#5d0812"></path><path d="M42 492L0 542L62 539Z" fill="#5d0812" stroke="#5d0812"></path><path d="M900 341L825 362L857 408Z" fill="#810213" stroke="#810213"></path><path d="M900 341L900 315L825 362Z" fill="#6f0513" stroke="#6f0513"></path><path d="M135 60L72 56L133 112Z" fill="#ca0000" stroke="#ca0000"></path><path d="M0 128L0 165L41 173Z" fill="#930011" stroke="#930011"></path><path d="M112 0L72 56L135 60Z" fill="#5d0812" stroke="#5d0812"></path><path d="M900 428L900 341L857 408Z" fill="#3a0a0d" stroke="#3a0a0d"></path><path d="M198 0L112 0L185 52Z" fill="#4b0910" stroke="#4b0910"></path><path d="M834 0L779 0L778 57Z" fill="#930011" stroke="#930011"></path><path d="M900 315L900 232L848 252Z" fill="#1c0000" stroke="#1c0000"></path><path d="M824 600L851 549L779 541Z" fill="#6f0513" stroke="#6f0513"></path><path d="M827 478L900 428L857 408Z" fill="#810213" stroke="#810213"></path><path d="M900 490L900 428L827 478Z" fill="#5d0812" stroke="#5d0812"></path><path d="M0 128L41 173L57 139Z" fill="#810213" stroke="#810213"></path><path d="M760 600L824 600L779 541Z" fill="#930011" stroke="#930011"></path><path d="M0 421L0 488L42 492Z" fill="#a6000e" stroke="#a6000e"></path><path d="M62 539L47 600L103 600Z" fill="#930011" stroke="#930011"></path><path d="M900 232L900 173L831 164Z" fill="#b80009" stroke="#b80009"></path><path d="M844 106L900 40L828 79Z" fill="#6f0513" stroke="#6f0513"></path><path d="M828 79L834 0L778 57Z" fill="#2a0807" stroke="#2a0807"></path><path d="M0 76L57 139L72 56Z" fill="#a6000e" stroke="#a6000e"></path><path d="M0 76L0 128L57 139Z" fill="#a6000e" stroke="#a6000e"></path><path d="M0 542L47 600L62 539Z" fill="#ca0000" stroke="#ca0000"></path><path d="M851 549L900 490L827 478Z" fill="#b80009" stroke="#b80009"></path><path d="M900 548L900 490L851 549Z" fill="#3a0a0d" stroke="#3a0a0d"></path><path d="M112 0L71 0L72 56Z" fill="#810213" stroke="#810213"></path><path d="M900 173L900 126L831 164Z" fill="#810213" stroke="#810213"></path><path d="M0 488L0 542L42 492Z" fill="#810213" stroke="#810213"></path><path d="M900 40L834 0L828 79Z" fill="#6f0513" stroke="#6f0513"></path><path d="M0 0L0 76L72 56Z" fill="#1c0000" stroke="#1c0000"></path><path d="M900 600L900 548L851 549Z" fill="#b80009" stroke="#b80009"></path><path d="M0 542L0 600L47 600Z" fill="#1c0000" stroke="#1c0000"></path><path d="M824 600L900 600L851 549Z" fill="#2a0807" stroke="#2a0807"></path><path d="M900 126L900 40L844 106Z" fill="#6f0513" stroke="#6f0513"></path><path d="M71 0L0 0L72 56Z" fill="#6f0513" stroke="#6f0513"></path><path d="M900 40L900 0L834 0Z" fill="#b80009" stroke="#b80009"></path></g></svg>